<svg width="0" height="0">
  <symbol xmlns="http://www.w3.org/2000/svg" viewBox="0 0 97.46 100" id="squirrel">
    <path fill="currentColor" d="M97.1,60.71a27.1,27.1,0,0,0-2.5-7.33,34.05,34.05,0,0,0-3.68-5.82,22.84,22.84,0,0,0,1.76-6.49,20.15,20.15,0,0,0-.29-6.21A16.9,16.9,0,0,0,91,30.78a12.43,12.43,0,0,0-.91-1.61,2.22,2.22,0,0,0-1.68-.91,2.18,2.18,0,0,0-1.76.76,38.92,38.92,0,0,1-11.18,9.2c.48-.71.93-1.41,1.35-2.13a35.73,35.73,0,0,0,2-4c.54-1.26,1-2.57,1.47-4A39.71,39.71,0,0,0,82.06,18a43.72,43.72,0,0,0-.48-8.45,37.9,37.9,0,0,0-2.1-8A2.34,2.34,0,0,0,77.88.08,2.45,2.45,0,0,0,75.79.5C66.54,7.61,60.5,10,50.48,14,44.78,16.2,37.69,19,28.06,23.44a68.11,68.11,0,0,0-9.19,5.09,49.24,49.24,0,0,0-7.22,5.77,41.49,41.49,0,0,0-5.37,6.38,36.08,36.08,0,0,0-3.62,6.83,36.84,36.84,0,0,0-2,7.17A41,41,0,0,0,0,62a48.38,48.38,0,0,0,.6,7.38,59.57,59.57,0,0,0,1.61,7.34,24,24,0,0,0,3.46,7.45A20.06,20.06,0,0,0,10,88.69a16.63,16.63,0,0,0,5.17,2.72,22.3,22.3,0,0,0,2,2.5,18.37,18.37,0,0,0,7.42,5,19.08,19.08,0,0,0,4.86,1c.58,0,1.18.07,1.78.07A26,26,0,0,0,35,99.72a34.42,34.42,0,0,0,8.26-2.19,22.7,22.7,0,0,0,5.81-3.44,18.87,18.87,0,0,0,3.73-4.15,21.74,21.74,0,0,0,2.13-4.23,15.57,15.57,0,0,0,1-6.73c0-.15,0-.3,0-.45a53.29,53.29,0,0,0,9.21,3.91,40.55,40.55,0,0,0,10.77,1.89,33.8,33.8,0,0,0,4-.12,28.47,28.47,0,0,0,3-.45A16.62,16.62,0,0,0,85.66,83a2.46,2.46,0,0,0,.7-.47,4.43,4.43,0,0,0,1.31-3.29A10.28,10.28,0,0,0,86,74.31c-.44-.75-1-1.54-1.59-2.38l.34.09a20.93,20.93,0,0,0,4.73.57A14.8,14.8,0,0,0,91,72.51a8.84,8.84,0,0,0,5.28-2,2.19,2.19,0,0,0,.59-1A20.68,20.68,0,0,0,97.1,60.71ZM6.81,75.47C.72,53.78,8.55,37.77,30.07,27.85c9.51-4.38,16.54-7.16,22.18-9.38,5.2-2.06,9.29-3.69,13.4-5.76A76.54,76.54,0,0,0,76,6.38a36.51,36.51,0,0,1,.84,4.06,36.7,36.7,0,0,1-1.15,16.29,32.53,32.53,0,0,1-8.48,13.92,1.24,1.24,0,0,0-.18.21c-2.29-.11-4.54-.15-6.73-.15-2.7,0-5.29.07-7.78.24a91,91,0,0,0-12.34,1.57,63.66,63.66,0,0,0-9.77,2.77A43.39,43.39,0,0,0,22.93,49a30.5,30.5,0,0,0-9.24,8.68,25.92,25.92,0,0,0-2.32,4.26,24,24,0,0,0-1.23,3.67,23.86,23.86,0,0,0-.53,5.55,44.74,44.74,0,0,0,.66,7.41,40.78,40.78,0,0,0,1.26,5.19A18.06,18.06,0,0,1,6.81,75.47Zm85.94-7.8-.27.12a7.78,7.78,0,0,1-2.49.49c-2.23.11-6.18-.4-12.22-3.45a2.19,2.19,0,0,0-2.49,3.54,57.35,57.35,0,0,1,4.61,5,23.6,23.6,0,0,1,2.72,4,5.43,5.43,0,0,1,.62,1.8,24,24,0,0,1-7.3.78c-4.79-.15-12.41-1.58-21.64-7.38a10.72,10.72,0,0,0-2-2.84A12.37,12.37,0,0,0,49,67.4a15,15,0,0,0-8-1.53,13,13,0,0,0-7,2.68,11.09,11.09,0,0,0-2.65,3,12.45,12.45,0,0,0-1.56,4.08,2.19,2.19,0,1,0,4.3.85,7.75,7.75,0,0,1,7.35-6.27c3.49-.3,7.74,1.22,9.09,4.67v0a13.3,13.3,0,0,1,.29,9.28c-1.52,4-4.88,9.5-16.48,11.22-5.81.86-10.5-.63-13.95-4.41s-5.11-9.36-5.79-13.25a31.25,31.25,0,0,1-.19-11.16c.94-3.86,3.6-9.42,10.87-14,8.1-5.05,19.85-7.6,35-7.6,2.35,0,4.8.06,7.32.18h.21a13.68,13.68,0,0,0,2.11-.32A27,27,0,0,0,75,43.31a35.74,35.74,0,0,0,7-4,45.3,45.3,0,0,0,5.73-5A15.33,15.33,0,0,1,88.19,36a17,17,0,0,1-1.74,11,2.16,2.16,0,0,0,.35,2.44s.57.63,1.32,1.67a30.4,30.4,0,0,1,2.65,4.39C92.89,59.78,93.56,63.89,92.75,67.67Z"/>
    <circle fill="currentColor" cx="83.06" cy="55.58" r="3.4"/>
  </symbol>
  <symbol xmlns="http://www.w3.org/2000/svg" viewBox="0 0 307.73 84" id="wordmark">
    <path fill="currentColor" d="M14.3,20.9c-0.3,0-0.6-0.1-0.9-0.1c-0.4-0.2-0.9-0.1-1.2,0.1c-0.3,0.3-0.4,0.7-0.4,1.1c0,1.9,1.9,4.9,4.7,4.9 c4.7,0,14.6-7.8,14.6-16.5c0-6.1-3.9-10.1-9.9-10.1C10.9,0.3,0,10.9,0,20.9C0,29.8,6.1,33.8,11,37c3.7,2.5,6.9,4.6,6.9,8 c0.2,2.3-1.6,4.4-4,4.5c-0.2,0-0.4,0-0.6,0C12,49.6,10.6,49,9.6,48c-0.2-0.5-0.7-0.9-1.3-0.9c-1.6,0-3.5,3-3.5,4.9 c0,0.9,2.1,4.3,8.6,4.3c6.4,0,11.6-5.1,11.6-11.5c0-6.6-4.9-9.8-9.5-13C11.1,28.9,7,26.2,7,20.9C7,13.4,15.5,7,20.9,7 c2.4,0,3.4,1,3.4,3.4C24.3,15,18,20.9,14.3,20.9z M169.7,27.5V10.3c-0.1-0.8,0.1-1.6,0.5-2.3c0.5,0,1.4,1.4,1.4,6.4 C171.4,18.9,170.7,23.2,169.7,27.5z M149.8,30.5c0.4-0.4,0.9-0.7,1.5-0.7c0.7,0,0.9,1,0.9,2c0.1,3.7-1.7,7.1-4.9,9 c0-0.1,0-0.3,0-0.3l0,0C147.2,38,147.8,32.5,149.8,30.5L149.8,30.5z M51.1,77.9c-0.5,0-1.3-0.8-1.3-3.6v-9c1.8,2.7,2.7,5.8,2.6,9 C52.4,77,51.6,77.9,51.1,77.9z M183.2,40.5c-0.6-0.7-1.6-1-2.5-0.8c-0.6,0.2-1.4,0.8-1.8,2.5c-0.6,3-2.9,7.4-6,7.4 c-2.7,0-3.3-2.4-3.3-4.5v-4c1.6-2.2,7.6-16.5,7.6-26.8c0-4.1,0-12.5-7.2-12.5c-4.2,0-7.3,4.3-7.3,10v29c-0.8,4-2.9,8.7-8.4,8.7 c-2.5,0.2-4.9-1.3-6-3.6c6.2-2.1,10.5-7.9,10.7-14.4c0-4.9-2.9-8-7.2-8c-5.7,0-11.9,6.8-11.9,17c0,1.1,0.1,2.2,0.3,3.3 c-0.7,2.8-2,5.8-4.3,5.8c-1.7,0-2.3-1.8-2.3-3.4c0-5.4,1.8-11.4,2.8-14.7c0.2-0.7,0.4-1.4,0.6-2.2c0-1-0.4-2-1.1-2.7 c-0.9-1-2.3-2.1-3.1-2.1H129c-1.1,0-2.3-0.1-3.4-0.2c-0.6-2.3-2.7-4-5.1-4c-2.3-0.1-4.2,1.7-4.3,3.9c0,0,0,0.1,0,0.1 	c0,2.1,1.3,4.1,3.2,5.1c-0.1,2.5-0.3,9.2-1.2,12.3c0,0.1,0,0.2-0.1,0.3v0c-0.7,3.2-1.9,7.5-4.7,7.5c-1.7,0-2.3-1.8-2.3-3.4 	c0-5.4,1.8-11.4,2.8-14.7c0.2-0.7,0.4-1.4,0.6-2.2c0-1-0.4-2-1.1-2.7c-0.9-1-2.3-2.1-3.1-2.1h-3.8c-1.1,0-2.3-0.2-3.4-0.4 c-0.6-2.3-2.7-4-5.1-4c-2.3-0.1-4.2,1.7-4.3,4c0,0,0,0,0,0c0,2.1,1.3,4.1,3.2,5.1c0,2.5-0.3,9.2-1.2,12.3c0,0.1,0,0.2-0.1,0.3l0,0 c-1,5-2.5,7.5-4.3,7.5c-1.1,0-1.3-1.5-1.3-2.8V28.2c0-2.2-1.9-3.9-4.6-3.9c-1.4,0-2.5,0.8-2.5,1.9c0,0.2,0,0.5,0.1,0.7c0.1,0.5,0.2,1.1,0.2,1.6v12.6c-0.1,0.3-0.2,0.7-0.3,1c-1,5-2.5,7.5-4.3,7.5c-1.1,0-1.3-1.5-1.3-2.8V28.2c0-2.2-1.9-3.9-4.6-3.9 c-1.1,0-3,0.3-3,1.4c0,0.3,0.1,0.6,0.3,0.8c0.4,0.6,0.5,1.3,0.5,2v11.8c-1,5.5-3.2,9.4-5.4,9.4c-2.4,0-2.8-3.4-2.8-5.5 c0-6,0.8-9.2,2.1-14.5v-0.2c0.1-0.2,0.2-0.5,0.3-0.7c0.4-0.9,1-2.2,0.4-3.2c-0.6-0.7-1.5-1.1-2.4-0.9c-3.4,0-4,1.1-4.3,2.5 c0,0.2-0.1,0.4-0.2,0.6v0c-1.5,5.3-2.4,10.8-2.7,16.3c-1.3,3.4-3.1,6.6-5.5,9.3V34.7c0-2.2-1.9-3.9-4.6-3.9c-1.5,0-2.5,0.8-2.5,1.9 c0,0.2,0,0.5,0.1,0.7c0.1,0.5,0.2,1.1,0.2,1.6v8.3c-0.5,3-2,6.3-4.3,6.3s-3.6-2-3.6-5.4c0-9.7,5.8-14.8,11.5-14.8c0.3,0,0.7,0,1,0.1 s0.7,0.1,1.1,0.1c1.6,0,1.6-1.5,1.6-2.3c0-2-1.6-3.7-3.6-3.7c-0.1,0-0.3,0-0.4,0c-4.8,0-9.3,2-12.5,5.5c-3.7,4.1-5.6,9.4-5.5,14.9 c0,7.1,3.7,11.7,9.4,11.7c2,0,3.9-0.7,5.5-1.9v19.9c0,6.7,2.8,10.3,8,10.3c4.4,0,7.9-4.6,7.9-10.4c0-5.3-2.8-9.6-6.9-14.2 c2.2-1.9,4.1-4.2,5.6-6.6c1.4,2,3.8,3.1,6.2,3c2.8,0,5.1-1.5,7.1-4.4c0.9,2.6,3.4,4.4,6.3,4.3c2.7,0,5.3-1.2,6.9-3.3 c1.2,2.1,3.4,3.4,5.8,3.3c5,0,8.7-3.9,10.9-11.2c0-0.1,0.1-0.2,0.1-0.3c1.4-4.5,1.8-11,1.8-13.1h4.9c-2.4,6.5-3.4,11.4-3.4,15.6 c0,6.6,4.2,9,8.2,9c5,0,8.7-3.9,10.9-11.2c0.1-0.1,0.1-0.2,0.1-0.3c1.4-4.5,1.8-11,1.8-13.1h4.9c-2.3,6.5-3.4,11.4-3.4,15.6 c0,6.6,4.2,9,8.2,9c3.3,0,6.1-1.7,8.2-5.1c0.3,0.4,0.6,0.7,0.9,1c2.5,2.6,5.9,4,9.5,4c5,0,8.4-1.9,10.6-4.3c1.6,2.8,4.6,4.4,7.9,4.3 c7.7,0,11.3-9,12.2-11.8l0,0C184.6,42.6,184.1,41.3,183.2,40.5z M218.2,18.2c-2.6,2.3-5.8,3.7-8.3,3.7c-0.7,0.1-1.4-0.1-2-0.5 c-0.2-0.2-0.5-0.3-0.8-0.3c-1.1,0-1.4,1.9-1.4,3c0,2.5,1.5,4.1,3.9,4.1c4.1,0,9.2-2.1,13.2-5.4c4.4-3.6,6.9-8.2,6.9-12.5 c0-6.3-3.9-10.3-10-10.3c-6.9,0-13.3,3.9-18,11c-4.2,6.5-6.5,14.1-6.6,21.8c0,14.8,6.7,23.9,17.5,23.9c5.6-0.1,10.9-2.3,14.9-6.3 l0,0c0.7-0.8,0.9-2.1,0.4-3.1c-0.4-1.3-1.5-2.7-2.9-2.8c-0.9-0.1-1.7,0.4-2.1,1.2l-0.1,0.1c-2.6,2.5-6,4-9.6,4 c-3.6,0.1-6.8-2-8.4-5.2c-1.6-3-2.5-7.1-2.5-12c0-11.9,7.4-26.2,16.5-26.2c3.1,0,3.9,2.2,3.9,3.5C222.6,12.8,221,15.7,218.2,18.2z M307,17.6c-0.3-0.2-0.8-0.2-1.4,0.3c-4.2,0.2-8.8,0.3-13.8,0.3V5.9c0-2.2-1.9-3.8-4.6-3.8c-1.1,0-3,0.3-3,1.4 c0,0.3,0.1,0.6,0.3,0.8c0.4,0.6,0.5,1.3,0.5,2v11.8c-3.6-0.1-6-0.2-6-0.2l0,0c-0.5,0-1,0.2-1.3,0.7c-0.3,0.4-0.4,0.9-0.4,1.3 c0,1.7,1.3,4.1,3.2,4.1c0.2,0,1.8,0.1,4.5,0.1v17c-0.1,0.3-0.2,0.7-0.3,1c-1,5-2.5,7.5-4.3,7.5c-1.5,0-1.9-1.7-1.9-2.8V34.8 c0-2.2-1.9-3.9-4.6-3.9c-1.5,0-2.5,0.8-2.5,1.9c0,0.2,0,0.5,0.1,0.7c0.1,0.5,0.2,1.1,0.2,1.6v11.2c-0.6,1.5-1.7,3.3-3.5,3.3 c-2.2,0-3.6-2-3.6-5.4c0-9.7,5.8-14.8,11.5-14.8c0.3,0,0.7,0,1,0.1s0.7,0.1,1.1,0.1c1.6,0,1.6-1.5,1.6-2.3c0-2-1.6-3.7-3.6-3.7 c-0.1,0-0.3,0-0.4,0c-4.8,0-9.3,2-12.5,5.5c-3.7,4.1-5.7,9.4-5.5,14.9c0,0.6,0,1.1,0.1,1.6c-0.9,2.7-2.1,4-3.4,4 c-1.1,0-1.3-1.5-1.3-2.8V31.7c0-5.1-2.4-8-6.7-8c-2.9,0-5.4,1.8-7.6,5.5V7.4c0-2.2-1.9-3.8-4.6-3.8c-1.1,0-3,0.3-3,1.4 c0,0.3,0.1,0.6,0.3,0.8c0.4,0.6,0.5,1.3,0.5,2v44.2c0,2.5,1.5,3.8,4.1,3.8c0.7,0,1.4-0.2,1.9-0.7c0.6-0.9,0.9-1.9,0.8-3V41.3 c0.3-2.8,1.3-5.6,2.9-7.9c1.5-2.4,3-3.6,3.7-3.6s0.9,1.4,0.9,3.6v14.9c0,4.4,2.8,7.5,6.8,7.5c2.7,0,5.3-1.3,7-3.4 c1.6,2.2,4.2,3.5,7,3.4c2.4,0,4.6-0.9,6.3-2.7c1.4,1.7,3.5,2.7,5.7,2.7c2.7,0,5.3-1.3,7.1-3.4c1.3,2.2,3.7,3.6,6.3,3.4 c7,0,10-7.5,11.1-12c0.1-0.2,0.1-0.4,0.1-0.7c0-1.7-1.7-3.6-3.2-3.6c-0.4,0-1.9,0.2-2.4,2.7c-1,5-2.5,7.5-4.3,7.5 c-0.8,0-1.9-0.3-1.9-2.8V24.2c3.7,0,8,0,13.5-0.1c1,0,1.8-1,2.2-2.8C307.6,20.9,308.2,18.2,307,17.6z M87.4,18c2.8,0,5-2.2,5-5 s-2.2-5-5-5s-5,2.2-5,5S84.7,18,87.4,18z"/>
  </symbol>
  <symbol xmlns="http://www.w3.org/2000/svg" viewBox="0 0 386.90 100" id="logo">
    <use x="0" y="0" width="97.46" height="100" href="#squirrel"/>
    <use x="130.46" y="23" width="256.44" height="70" href="#wordmark"/>
  </symbol>
  <symbol xmlns="http://www.w3.org/2000/svg" viewBox="0 0 390 100" id="logo-developers">
    <use x="0" y="0" width="97.46" height="100" href="#squirrel"/>
    <use x="130.46" y="8" width="256.44" height="70" href="#wordmark"/>
    <text x="130.46" y="92" font-family="'JetBrains Mono',monospace" fill="currentColor" font-size="36" font-weight="800">>_ Developers</text>
  </symbol>
</svg>
